Coordinates
version=1
nRows=10
nColumns=22
inDegrees=yes

Units are S.I. units (second, meters, Newtons, ...)
If the header above contains a line with 'inDegrees', this indicates whether rotational values are in degrees (yes) or radians (no).

endheader
time	pelvis_tilt	pelvis_list	pelvis_rotation	pelvis_tx	pelvis_ty	pelvis_tz	hip_flexion_r	hip_adduction_r	hip_rotation_r	knee_angle_r	ankle_angle_r	subtalar_angle_r	hip_flexion_l	hip_adduction_l	hip_rotation_l	knee_angle_l	ankle_angle_l	subtalar_angle_l	lumbar_extension	lumbar_bending	lumbar_rotation
      0.01000000	      2.08349528	     -3.12431806	     -1.45256875	      0.10856029	      1.01818133	      0.89961926	      6.62502790	      6.24240895	      0.83272023	    -21.89747242	     14.10231981	     -2.21799984	      3.44469281	     -1.42685696	     -5.15501665	    -17.37848530	      7.62820922	    -12.72770904	    -13.20884172	      1.88058015	      3.35951620
      0.02000000	      2.06104785	     -3.12457468	     -1.46087286	      0.10876609	      1.01818721	      0.89961636	      6.62180192	      6.24091773	      0.84063141	    -21.86760514	     14.10117679	     -2.21514030	      3.44320224	     -1.42445047	     -5.15823437	    -17.35566503	      7.62902082	    -12.72640771	    -13.18545543	      1.88990820	      3.35543135
      0.03000000	      2.03074013	     -3.13188690	     -1.47103554	      0.10900321	      1.01818811	      0.89961624	      6.61829408	      6.24818606	      0.86160275	    -21.82524210	     14.09486980	     -2.20930366	      3.44670073	     -1.42959736	     -5.15700697	    -17.33026601	      7.62697432	    -12.72714210	    -13.15525528	      1.90863280	      3.35707514
      0.04000000	      1.98696989	     -3.15604207	     -1.48531763	      0.10922680	      1.01817508	      0.89963637	      6.62887141	      6.27920241	      0.90932013	    -21.78128694	     14.06608526	     -2.19276071	      3.46982034	     -1.45464417	     -5.15242681	    -17.31593691	      7.62666063	    -12.73447844	    -13.11988584	      1.94401298	      3.37308639
      0.05000000	      1.95646890	     -3.16320906	     -1.49176693	      0.10951244	      1.01817651	      0.89961585	      6.62197465	      6.28257393	      0.90913530	    -21.73758496	     14.06064331	     -2.18553538	      3.47550353	     -1.45931228	     -5.15975651	    -17.29990070	      7.63075676	    -12.73779071	    -13.08978759	      1.96489536	      3.38338007
      0.06000000	      1.91447699	     -3.18599759	     -1.49672780	      0.10978275	      1.01816557	      0.89960889	      6.62331916	      6.30709121	      0.92791379	    -21.68494291	     14.04190842	     -2.17098929	      3.49484049	     -1.48180743	     -5.15213310	    -17.28388632	      7.63276430	    -12.74386025	    -13.05376682	      2.00143765	      3.40076027
      0.07000000	      1.86265632	     -3.22696340	     -1.49987272	      0.11002304	      1.01812822	      0.89959268	      6.64674363	      6.35328959	      0.95408664	    -21.65232694	     13.99250624	     -2.13701177	      3.54327317	     -1.52530768	     -5.14322228	    -17.30231235	      7.64911167	    -12.75894454	    -13.01133436	      2.06355051	      3.41604844
      0.08000000	      1.81559526	     -3.25385400	     -1.49824117	      0.11027788	      1.01809520	      0.89956922	      6.66380195	      6.37993068	      0.94940349	    -21.61767326	     13.97001879	     -2.10670787	      3.58356718	     -1.55332685	     -5.13553654	    -17.31220744	      7.66172726	    -12.76920324	    -12.97317115	      2.10683681	      3.43204231
      0.09000000	      1.77594309	     -3.28177830	     -1.49601732	      0.11053269	      1.01806691	      0.89953638	      6.67671728	      6.40740173	      0.94475215	    -21.59076408	     13.94258379	     -2.07670641	      3.62231646	     -1.58153829	     -5.12405283	    -17.33572376	      7.67542034	    -12.77710065	    -12.94252066	      2.15285472	      3.44670697
      0.10000000	      1.74077669	     -3.31202502	     -1.49545751	      0.11077995	      1.01803776	      0.89950784	      6.68815770	      6.43734646	      0.94050892	    -21.57013995	     13.91687516	     -2.04542997	      3.66230033	     -1.61318821	     -5.11339919	    -17.36954938	      7.69470728	    -12.78336252	    -12.91896295	      2.20027484	      3.46178958
